<svg viewBox="0 0 512 512" xmlns="http://www.w3.org/2000/svg">
<path d="M256,91 L331,121" fill="transparent" stroke="rgb(0,0,0)" stroke-width="5"/>
<path d="M256,91 L93.5,121" fill="transparent" stroke="rgb(0,0,0)" stroke-width="5"/>
<path d="M256,91 L18.5,121" fill="transparent" stroke="rgb(0,0,0)" stroke-width="5"/>
<path d="M331,141 L456,171" fill="transparent" stroke="rgb(0,0,0)" stroke-width="5"/>
<path d="M331,141 L393.5,171" fill="transparent" stroke="rgb(0,0,0)" stroke-width="5"/>
<path d="M331,141 L268.5,171" fill="transparent" stroke="rgb(0,0,0)" stroke-width="5"/>
<path d="M456,191 L493.5,221" fill="transparent" stroke="rgb(0,0,0)" stroke-width="5"/>
<path d="M456,191 L468.5,221" fill="transparent" stroke="rgb(0,0,0)" stroke-width="5"/>
<path d="M456,191 L443.5,221" fill="transparent" stroke="rgb(0,0,0)" stroke-width="5"/>
<path d="M456,191 L418.5,221" fill="transparent" stroke="rgb(0,0,0)" stroke-width="5"/>
<path d="M268.5,191 L268.5,221" fill="transparent" stroke="rgb(0,0,0)" stroke-width="5"/>
<path d="M268.5,241 L293.5,271" fill="transparent" stroke="rgb(0,0,0)" stroke-width="5"/>
<path d="M268.5,241 L193.5,271" fill="transparent" stroke="rgb(0,0,0)" stroke-width="5"/>
<path d="M268.5,241 L168.5,271" fill="transparent" stroke="rgb(0,0,0)" stroke-width="5"/>
<path d="M293.5,291 L368.5,321" fill="transparent" stroke="rgb(0,0,0)" stroke-width="5"/>
<path d="M293.5,291 L343.5,321" fill="transparent" stroke="rgb(0,0,0)" stroke-width="5"/>
<path d="M293.5,291 L318.5,321" fill="transparent" stroke="rgb(0,0,0)" stroke-width="5"/>
<path d="M293.5,291 L256,321" fill="transparent" stroke="rgb(0,0,0)" stroke-width="5"/>
<path d="M256,341 L256,371" fill="transparent" stroke="rgb(0,0,0)" stroke-width="5"/>
<path d="M256,391 L293.5,421" fill="transparent" stroke="rgb(0,0,0)" stroke-width="5"/>
<path d="M256,391 L268.5,421" fill="transparent" stroke="rgb(0,0,0)" stroke-width="5"/>
<path d="M256,391 L243.5,421" fill="transparent" stroke="rgb(0,0,0)" stroke-width="5"/>
<path d="M256,391 L218.5,421" fill="transparent" stroke="rgb(0,0,0)" stroke-width="5"/>
<path d="M93.5,141 L143.5,171" fill="transparent" stroke="rgb(0,0,0)" stroke-width="5"/>
<path d="M93.5,141 L93.5,171" fill="transparent" stroke="rgb(0,0,0)" stroke-width="5"/>
<path d="M93.5,141 L43.5,171" fill="transparent" stroke="rgb(0,0,0)" stroke-width="5"/>
<path d="M93.5,191 L118.5,221" fill="transparent" stroke="rgb(0,0,0)" stroke-width="5"/>
<path d="M93.5,191 L93.5,221" fill="transparent" stroke="rgb(0,0,0)" stroke-width="5"/>
<path d="M93.5,191 L68.5,221" fill="transparent" stroke="rgb(0,0,0)" stroke-width="5"/>
<rect fill="rgb(0,0,0)" height="20" width="20" x="246" y="71"/>
<rect fill="rgb(0,0,0)" height="20" width="20" x="321" y="121"/>
<rect fill="rgb(0,0,0)" height="20" width="20" x="446" y="171"/>
<rect fill="rgb(128,0,0)" height="20" width="20" x="483.5" y="221"/>
<rect fill="rgb(128,0,0)" height="20" width="20" x="458.5" y="221"/>
<rect fill="rgb(128,0,0)" height="20" width="20" x="433.5" y="221"/>
<rect fill="rgb(128,0,0)" height="20" width="20" x="408.5" y="221"/>
<rect fill="rgb(128,0,0)" height="20" width="20" x="383.5" y="171"/>
<rect fill="rgb(0,0,0)" height="20" width="20" x="258.5" y="171"/>
<rect fill="rgb(0,0,0)" height="20" width="20" x="258.5" y="221"/>
<rect fill="rgb(0,0,0)" height="20" width="20" x="283.5" y="271"/>
<rect fill="rgb(128,0,0)" height="20" width="20" x="358.5" y="321"/>
<rect fill="rgb(128,0,0)" height="20" width="20" x="333.5" y="321"/>
<rect fill="rgb(128,0,0)" height="20" width="20" x="308.5" y="321"/>
<rect fill="rgb(0,0,0)" height="20" width="20" x="246" y="321"/>
<rect fill="rgb(0,0,0)" height="20" width="20" x="246" y="371"/>
<rect fill="rgb(128,0,0)" height="20" width="20" x="283.5" y="421"/>
<rect fill="rgb(128,0,0)" height="20" width="20" x="258.5" y="421"/>
<rect fill="rgb(128,0,0)" height="20" width="20" x="233.5" y="421"/>
<rect fill="rgb(128,0,0)" height="20" width="20" x="208.5" y="421"/>
<rect fill="rgb(128,0,0)" height="20" width="20" x="183.5" y="271"/>
<rect fill="rgb(128,0,0)" height="20" width="20" x="158.5" y="271"/>
<rect fill="rgb(0,0,0)" height="20" width="20" x="83.5" y="121"/>
<rect fill="rgb(128,0,0)" height="20" width="20" x="133.5" y="171"/>
<rect fill="rgb(0,0,0)" height="20" width="20" x="83.5" y="171"/>
<rect fill="rgb(128,0,0)" height="20" width="20" x="108.5" y="221"/>
<rect fill="rgb(128,0,0)" height="20" width="20" x="83.5" y="221"/>
<rect fill="rgb(128,0,0)" height="20" width="20" x="58.5" y="221"/>
<rect fill="rgb(128,0,0)" height="20" width="20" x="33.5" y="171"/>
<rect fill="rgb(128,0,0)" height="20" width="20" x="8.5" y="121"/>
</svg>